<?xml version="1.0" encoding="utf-8"?>
<!-- Generator: Adobe Illustrator 20.1.0, SVG Export Plug-In . SVG Version: 6.00 Build 0)  -->
<svg version="1.1" id="Calque_1" xmlns="http://www.w3.org/2000/svg" xmlns:xlink="http://www.w3.org/1999/xlink" x="0px" y="0px"
	 viewBox="0 0 850.5 268" style="enable-background:new 0 0 850.5 268;" xml:space="preserve">
<g>
	<path d="M200.4,177.1h-16.2c-0.5,0-0.8,0.3-0.8,0.8v22.5c0,0.6,0.3,0.8,0.8,0.8h1.7c0.6,0,0.9-0.3,0.9-0.8v-8.5h13.6
		c6,0,8.8-3.5,8.8-7.5C209.2,179.8,206.4,177.1,200.4,177.1z M200.5,188.7h-13.8v-8.4h13.8c2.8,0,5.1,1.2,5.1,4.1
		C205.7,187.1,203.6,188.7,200.5,188.7z"/>
	<path d="M232,177.9c-0.3-0.5-0.7-0.7-1.2-0.7h-2.7c-0.5,0-0.9,0.2-1.2,0.7l-12.5,22.2c-0.1,0.2-0.2,0.4-0.2,0.6
		c0,0.4,0.2,0.6,0.7,0.6h1.9c0.6,0,0.9-0.1,1.2-0.7l3-6h16.6l3.1,6c0.3,0.6,0.6,0.7,1.2,0.7h1.9c0.5,0,0.7-0.2,0.7-0.6
		c0-0.2-0.1-0.3-0.2-0.6L232,177.9z M223.1,191.4l6.3-11.2l6.3,11.2H223.1z"/>
	<path d="M273.9,191.8c4.5-0.7,6.7-3.8,6.7-7.3c0-4.6-2.8-7.3-8.8-7.3h-16.2c-0.5,0-0.8,0.3-0.8,0.8v22.5c0,0.6,0.3,0.8,0.8,0.8h1.7
		c0.6,0,0.9-0.3,0.9-0.8v-8.5h11.4l7.8,8.8c0.3,0.4,0.7,0.6,1.3,0.6h2.4c0.5,0,0.7-0.2,0.7-0.6c0-0.2-0.1-0.4-0.3-0.6L273.9,191.8z
		 M258.1,188.7v-8.4h13.8c2.8,0,5.1,1.2,5.1,4.1c0,2.7-2.1,4.3-5.1,4.3H258.1z"/>
	<path d="M296.5,177.1h-1.7c-0.5,0-0.8,0.3-0.8,0.8v22.5c0,0.6,0.3,0.8,0.8,0.8h1.7c0.6,0,0.9-0.3,0.9-0.8V178
		C297.3,177.4,297,177.1,296.5,177.1z"/>
	<path d="M323,187.4c-4.6-0.4-9.5-1-9.5-3.6c0-2.5,4.6-4.1,8.6-4.1c4.3,0,8.3,1.9,9.5,3.2c0.2,0.2,0.5,0.4,0.7,0.4
		c0.2,0,0.3,0,0.5-0.1l0.5-0.3c0.7-0.4,1.1-0.9,1.1-1.6c0-0.4-0.2-0.8-0.6-1.2c-0.5-0.5-5.1-3.4-11.6-3.4c-7,0-12.2,3.2-12.2,7.4
		c0,5.2,7.4,6,12.4,6.5c4.9,0.4,9.4,0.9,9.4,3.6c0,3-5.4,4.8-9.6,4.8c-4.7,0-8.6-2.1-10.6-4.2c-0.2-0.2-0.5-0.4-0.7-0.4
		c-0.2,0-0.3,0.1-0.5,0.2l-0.5,0.3c-0.7,0.4-1.1,0.9-1.1,1.5c0,0.4,0.2,0.8,0.6,1.2c0.7,0.8,5.3,4.2,12.7,4.2c6.4,0,12.9-2.6,12.9-8
		C335.2,189.5,330.8,188.1,323,187.4z"/>
	<path d="M370.4,177.8h-1.2c-0.5,0-0.8,0.3-0.8,0.8v23.2c0,0.5,0.3,0.8,0.8,0.8h1.2c0.5,0,0.8-0.3,0.8-0.8v-23.2
		C371.2,178.1,370.9,177.8,370.4,177.8z"/>
	<path d="M427.5,177.1h-1.7c-0.6,0-0.9,0.3-0.9,0.8v18.4l-18.3-18.6c-0.4-0.4-0.6-0.6-1.3-0.6h-1.8c-0.5,0-0.8,0.3-0.8,0.8v22.5
		c0,0.6,0.3,0.8,0.8,0.8h1.7c0.6,0,0.9-0.3,0.9-0.8V182l18.3,18.6c0.4,0.4,0.6,0.6,1.3,0.6h1.8c0.5,0,0.8-0.3,0.8-0.8V178
		C428.2,177.4,428,177.1,427.5,177.1z"/>
	<path d="M460.4,177.1h-21.6c-0.5,0-0.8,0.3-0.8,0.8v22.5c0,0.6,0.3,0.8,0.8,0.8h21.6c0.6,0,0.9-0.3,0.9-0.8v-1.5
		c0-0.6-0.3-0.8-0.9-0.8h-19.1v-7.5H455c0.6,0,0.9-0.3,0.9-0.8v-1.5c0-0.6-0.3-0.8-0.9-0.8h-13.7v-7h19.1c0.6,0,0.9-0.3,0.9-0.8V178
		C461.3,177.4,461,177.1,460.4,177.1z"/>
	<path d="M507.2,177.1h-2.1c-0.6,0-0.9,0.3-1.1,0.7l-7.4,18.8l-6.3-18.7c-0.2-0.5-0.6-0.8-1.2-0.8h-1.8c-0.6,0-1,0.3-1.2,0.8
		l-6.3,18.7l-7.4-18.8c-0.2-0.4-0.4-0.7-1.1-0.7h-2c-0.5,0-0.7,0.3-0.7,0.7c0,0.1,0,0.2,0.1,0.4l9.2,22.3c0.2,0.5,0.6,0.8,1.2,0.8
		h1.8c0.6,0,1-0.3,1.2-0.8l6.3-18.3l6.3,18.3c0.2,0.5,0.6,0.8,1.2,0.8h1.8c0.6,0,0.9-0.3,1.2-0.8l9.2-22.3c0-0.2,0.1-0.3,0.1-0.4
		C507.9,177.4,507.7,177.1,507.2,177.1z"/>
	<path d="M554.4,177.1H552c-0.4,0-0.9,0.2-1.2,0.6l-10.4,11l-10.4-11c-0.4-0.4-0.7-0.6-1.2-0.6h-2.5c-0.5,0-0.7,0.2-0.7,0.6
		c0,0.2,0.1,0.4,0.2,0.5l12.9,13.4v8.7c0,0.6,0.3,0.8,0.8,0.8h1.7c0.6,0,0.9-0.3,0.9-0.8v-8.7l12.8-13.5c0.2-0.2,0.2-0.4,0.2-0.6
		C555.1,177.3,554.8,177.1,554.4,177.1z"/>
	<path d="M573.4,176.7c-7.8,0-14.1,5.2-14.1,12.6c0,7.4,6.3,12.5,14.1,12.5c7.8,0,14.1-5.2,14.1-12.5
		C587.5,181.8,581.2,176.7,573.4,176.7z M573.4,198.6c-5.9,0-10.6-3.8-10.6-9.4c0-5.5,4.7-9.4,10.6-9.4c5.8,0,10.6,3.8,10.6,9.4
		C584,194.7,579.2,198.6,573.4,198.6z"/>
	<path d="M614.2,191.8c4.5-0.7,6.7-3.8,6.7-7.3c0-4.6-2.8-7.3-8.8-7.3h-15.2c-0.5,0-0.8,0.3-0.8,0.8v22.5c0,0.6,0.3,0.8,0.8,0.8h1.7
		c0.6,0,0.9-0.3,0.9-0.8v-8.5h10.4l7.8,8.8c0.3,0.4,0.7,0.6,1.3,0.6h2.4c0.5,0,0.7-0.2,0.7-0.6c0-0.2-0.1-0.4-0.3-0.6L614.2,191.8z
		 M599.4,188.7v-8.4h12.8c2.8,0,5.2,1.2,5.2,4.1c0,2.7-2.1,4.3-5.2,4.3H599.4z"/>
	<path d="M645.7,186.6l10.8-8.2c0.2-0.1,0.3-0.3,0.3-0.6c0-0.4-0.2-0.6-0.6-0.6h-2.8c-0.5,0-1,0.2-1.5,0.5l-15.8,12.1V178
		c0-0.6-0.3-0.8-0.9-0.8h-1.7c-0.5,0-0.8,0.3-0.8,0.8v22.5c0,0.6,0.3,0.8,0.8,0.8h1.7c0.6,0,0.9-0.3,0.9-0.8v-6.6l6.9-5.3l10.7,12.1
		c0.3,0.4,0.7,0.6,1.3,0.6h2.2c0.5,0,0.7-0.3,0.7-0.6c0-0.2-0.1-0.4-0.3-0.6L645.7,186.6z"/>
	<path d="M648.3,138.1c-4.7,3-10.8,4.2-17,4.2c-14.4,0-24.4-11.9-24.4-24c0-15.6,10.3-24.1,24.4-24.1c6.2,0,12.3,1,17,4.2V86.4
		c-5-2.6-10.8-3.1-17-3.1c-20.1,0-35.4,16.2-35.4,34.6c0,20.1,15.4,35,35.4,35c6.2,0,12.1-0.6,17-3V138.1z"/>
	<path d="M205.1,153c18.4-0.1,28.2-13.9,28.2-32.3V83.5h-10.7v37.1c0,12.3-5.3,21.6-17.5,21.6c-12.3,0-17.5-9.3-17.5-21.5V83.5
		h-10.7v37.2C176.9,139.1,186.7,153,205.1,153z"/>
	<polygon points="66.2,83.5 55.4,83.5 55.4,152.7 97.9,152.7 97.9,142 66.2,142 	"/>
	<rect x="658.8" y="83.5" width="10.8" height="69.1"/>
	<polygon points="679.9,152.7 723,152.7 723,141.9 690.7,141.9 690.7,123.5 723,123.5 723,112.7 690.7,112.7 690.7,94.3 723,94.3 
		723,83.5 679.9,83.5 	"/>
	<path d="M590.3,106.7c0-13.8-10.7-23.2-23-23.2H541v69.2h10.8v-24.6h12.3l15.4,24.6h13.7l-16.8-26.1
		C585.8,122,590.3,115.9,590.3,106.7z M551.8,117.4V94.3h15.5c7.6,0,12.3,5.2,12.3,12.8c0,6.2-6.2,10.3-12.3,10.3H551.8z"/>
	<path d="M278.7,126.6c9.3-4.6,13.8-10.7,13.8-19.9c0-13.8-10.7-23.2-23-23.2h-26.3v69.2H254v-24.6h12.3l15.4,24.6h13.7L278.7,126.6
		z M254,117.4V94.3h15.5c7.6,0,12.3,5.2,12.3,12.8c0,6.2-6.2,10.3-12.3,10.3H254z"/>
	<path d="M769.2,126.6c9.3-4.6,13.8-10.7,13.8-19.9c0-13.8-10.7-23.2-23-23.2h-26.3v69.2h10.8v-24.6h12.3l15.4,24.6H786L769.2,126.6
		z M744.5,117.4V94.3H760c7.6,0,12.3,5.2,12.3,12.8c0,6.2-6.2,10.3-12.3,10.3H744.5z"/>
	<polygon points="530.3,141.9 498,141.9 498,123.5 530.3,123.5 530.3,112.7 498,112.7 498,94.3 530.3,94.3 530.3,83.5 487.2,83.5 
		487.2,152.7 530.3,152.7 	"/>
	<path d="M134.5,83.5l-30.8,69.1h12.3l5.9-13.9h37.2l5.9,13.9h12.3l-30.9-69.1H134.5z M126.4,128.1l14.1-33.6l14.1,33.6H126.4z"/>
	<path d="M330.7,83.5l-30.8,69.1h12.3l5.9-13.9h37.2l5.9,13.9h12.3l-30.9-69.1H330.7z M322.6,128.1l14.1-33.6l14.1,33.6H322.6z"/>
	<polygon points="476.2,152.7 476.2,83.7 466.9,83.7 439.5,128.2 412,83.5 402.7,83.5 402.7,152.7 413.5,152.7 413.5,106.7 
		436.6,142 442.4,142 465.4,106.7 465.4,152.7 	"/>
</g>
</svg>
